<svg xmlns="http://www.w3.org/2000/svg" viewBox="0 0 64 64" role="img" aria-label="CoffeeChat OS">
  <defs>
    <linearGradient id="g" x1="0%" y1="0%" x2="100%" y2="100%">
      <stop offset="0%" stop-color="#0ea5e9"/>
      <stop offset="100%" stop-color="#2563eb"/>
    </linearGradient>
  </defs>
  <rect x="4" y="4" width="56" height="56" rx="14" fill="url(#g)"/>
  <path fill="#ffffff" d="M18 21h24v11.5c0 5.1-4.1 9.2-9.2 9.2H25.2C20.1 41.7 16 37.6 16 32.5V23a2 2 0 0 1 2-2Zm3 4v7.5c0 3.5 2.7 6.2 6.2 6.2h7.6c3.5 0 6.2-2.7 6.2-6.2V25H21Zm22 2h3.5c2.2 0 4 1.8 4 4.1 0 2.2-1.8 4-4 4H43v-8.1Zm-24.5 16h21c.8 0 1.5.7 1.5 1.5s-.7 1.5-1.5 1.5h-21a1.5 1.5 0 0 1 0-3Z"/>
</svg>
